<?xml version="1.0" encoding="utf-8"?>
<!-- Generator: Adobe Illustrator 25.0.1, SVG Export Plug-In . SVG Version: 6.00 Build 0)  -->
<svg version="1.1" id="Layer_1" xmlns="http://www.w3.org/2000/svg" xmlns:xlink="http://www.w3.org/1999/xlink" x="0px" y="0px"
	 viewBox="0 0 256 256" style="enable-background:new 0 0 256 256;" xml:space="preserve">
<style type="text/css">
	.st0{fill:#231F20;}
	.st1{fill:none;}
</style>
<g id="Layer_1_1_">
	<path class="st0" d="M75.5,172.5l-2.8-12.2h-1c-2.9,4.5-6.9,8.1-11.8,10.4c-5.4,2.5-11.4,3.8-17.6,3.7c-11.4-0.1-19.9-2.9-25.4-8.5
		c-5.5-5.7-8.3-14.2-8.4-25.6V78.9h20.1v57.8c0,7.2,1.5,12.6,4.4,16.2c2.9,3.6,7.5,5.4,13.9,5.4c8.3,0,14.6-2.5,18.5-7.5
		c3.9-5,5.9-13.4,5.9-25.2V78.7h20v93.7H75.5V172.5z"/>
	<path class="st0" d="M70,53.9c-0.2-3,0.8-6,2.9-8.3c2.3-2.1,5.2-3.1,8.3-2.9c3-0.2,6,0.9,8.2,2.9c2.1,2.2,3.1,5.2,2.9,8.3
		c0.1,2.9-0.9,5.8-2.9,7.9c-2.2,2.1-5.2,3.1-8.2,2.9c-3.1,0.2-6.1-0.8-8.4-2.9C70.8,59.8,69.7,56.9,70,53.9z"/>
	<path class="st0" d="M108.8,214.2c-5.1,0.1-10.1-0.6-14.9-2.1v-15.7c3.8,1,7.9,1.5,11.8,1.5c8.4,0,12.7-4.9,12.7-14.4V78.7h19.9
		v106.1c0,9.7-2.5,17-7.6,22C125.7,211.7,118.4,214.2,108.8,214.2z M117.2,53.9c-0.2-3,0.8-6,2.9-8.3c2.3-2.1,5.2-3,8.3-2.9
		c3-0.2,6,0.8,8.3,2.9c2.1,2.2,3.1,5.2,2.9,8.3c0.1,2.9-0.9,5.8-2.9,8c-2.2,2.1-5.2,3.1-8.3,2.9c-3,0.2-6-0.9-8.3-2.9
		C118,59.8,117,56.9,117.2,53.9z"/>
	<path class="st0" d="M162.6,53.9c-0.2-3,0.8-6,2.9-8.3c2.3-2,5.2-3,8.3-2.9c3-0.2,6,0.8,8.3,2.9c2.1,2.2,3.1,5.2,2.9,8.3
		c0.1,2.9-0.9,5.8-2.9,8c-2.2,2.1-5.2,3.1-8.3,2.9c-3,0.2-6-0.9-8.3-2.9C163.5,59.8,162.5,56.9,162.6,53.9z"/>
	<path class="st0" d="M248,172.5h-20v-57.7c0-7.3-1.5-12.6-4.4-16.2c-2.9-3.6-7.5-5.3-13.9-5.3c-8.4,0-14.6,2.4-18.5,7.4
		s-5.9,13.3-5.9,25.1v46.7h-19.9V78.7h15.6l2.8,12.2h1c2.9-4.5,7-8.1,12-10.4c5.4-2.5,11.3-3.7,17.3-3.7c22.5,0,33.7,11.4,33.7,34.3
		L248,172.5z"/>
</g>
<g id="Layer_2_1_">
	<rect class="st1" width="256" height="256"/>
</g>
</svg>
